<svg width="24" height="24" viewBox="0 0 24 24" fill="none" xmlns="http://www.w3.org/2000/svg">
<path d="M4.3 20.75C3.8 20.75 3.375 20.575 3.025 20.225C2.675 19.875 2.5 19.45 2.5 18.95V8.55C2.5 8.05 2.675 7.625 3.025 7.275C3.375 6.925 3.8 6.75 4.3 6.75H8.5V5.05C8.5 4.55 8.675 4.125 9.025 3.775C9.375 3.425 9.8 3.25 10.3 3.25H13.7C14.2 3.25 14.625 3.425 14.975 3.775C15.325 4.125 15.5 4.55 15.5 5.05V6.75H19.7C20.2 6.75 20.625 6.925 20.975 7.275C21.325 7.625 21.5 8.05 21.5 8.55V18.95C21.5 19.45 21.325 19.875 20.975 20.225C20.625 20.575 20.2 20.75 19.7 20.75H4.3ZM4.3 19.25H19.7C19.7667 19.25 19.8333 19.2167 19.9 19.15C19.9667 19.0833 20 19.0167 20 18.95V8.55C20 8.48333 19.9667 8.41667 19.9 8.35C19.8333 8.28333 19.7667 8.25 19.7 8.25H4.3C4.23333 8.25 4.16667 8.28333 4.1 8.35C4.03333 8.41667 4 8.48333 4 8.55V18.95C4 19.0167 4.03333 19.0833 4.1 19.15C4.16667 19.2167 4.23333 19.25 4.3 19.25ZM10 6.75H14V5.05C14 4.98333 13.9667 4.91667 13.9 4.85C13.8333 4.78333 13.7667 4.75 13.7 4.75H10.3C10.2333 4.75 10.1667 4.78333 10.1 4.85C10.0333 4.91667 10 4.98333 10 5.05V6.75ZM4 19.25C4 19.25 4 19.2167 4 19.15C4 19.0833 4 19.0167 4 18.95V8.55C4 8.48333 4 8.41667 4 8.35C4 8.28333 4 8.25 4 8.25C4 8.25 4 8.28333 4 8.35C4 8.41667 4 8.48333 4 8.55V18.95C4 19.0167 4 19.0833 4 19.15C4 19.2167 4 19.25 4 19.25Z" fill="black"/>
</svg>
