<svg width="24" height="24" viewBox="0 0 24 24" fill="none" xmlns="http://www.w3.org/2000/svg">
<path fill-rule="evenodd" clip-rule="evenodd" d="M20.9542 21.0581H20.9626C21.2223 21.0581 21.4322 21.268 21.4349 21.5304C21.435 21.5921 21.4229 21.6532 21.3993 21.7102C21.3757 21.7672 21.3411 21.8189 21.2975 21.8626C21.2539 21.9062 21.2021 21.9408 21.1451 21.9644C21.0881 21.9879 21.0271 22.0001 20.9654 22H3.50667C3.24699 22 3.03711 21.7901 3.03711 21.5304C3.03711 21.2707 3.24699 21.0608 3.50667 21.0608H3.51514V7.96691C3.51514 7.95304 3.51514 7.93637 3.51784 7.92266V7.91997C3.51784 7.90651 3.52041 7.89325 3.52302 7.87981L3.52329 7.87842V7.87297C3.52473 7.86712 3.52617 7.86206 3.52762 7.85701C3.52892 7.85242 3.53023 7.84783 3.53154 7.84265C3.54804 7.78472 3.5752 7.73038 3.61161 7.68241C3.61374 7.67741 3.61658 7.67274 3.62003 7.66854C3.62386 7.66662 3.62636 7.66337 3.62846 7.66064C3.62937 7.65945 3.6302 7.65837 3.63103 7.65753C3.67299 7.61236 3.72258 7.57492 3.77752 7.54693C3.78154 7.54558 3.78556 7.54357 3.78961 7.54154C3.79381 7.53944 3.79805 7.53733 3.80234 7.53592C3.80371 7.53592 3.80509 7.53525 3.80646 7.53457C3.80784 7.5339 3.80922 7.53323 3.81059 7.53323C3.81417 7.53181 3.81754 7.53039 3.82083 7.529C3.83033 7.525 3.83902 7.52134 3.84933 7.51925C3.85214 7.51655 3.85214 7.51655 3.85483 7.51655C3.86854 7.5111 3.88246 7.5083 3.89616 7.5056L5.72218 7.14648V3.48902C5.72218 3.48206 5.72285 3.47515 5.72352 3.46824C5.7242 3.46134 5.72487 3.45443 5.72487 3.44747V3.44202C5.72487 3.42964 5.72703 3.41967 5.72959 3.40787C5.72992 3.40636 5.73025 3.40481 5.73059 3.40323V3.39497C5.73196 3.39086 5.73335 3.38596 5.73473 3.38106C5.7361 3.37626 5.73746 3.37146 5.73879 3.3674C5.74018 3.36462 5.74087 3.36186 5.74157 3.35907C5.74225 3.35633 5.74293 3.35356 5.7443 3.35073C5.7443 3.35073 5.74699 3.34798 5.74699 3.34528C5.76369 3.29583 5.78793 3.24926 5.81886 3.20721L5.81915 3.20693C5.82446 3.20162 5.82716 3.19891 5.82981 3.19329C5.82981 3.19191 5.83056 3.19122 5.83131 3.19054C5.83205 3.18986 5.83278 3.18919 5.83278 3.18785C5.87411 3.13805 5.92655 3.09952 5.98747 3.06899C5.98915 3.06815 5.99107 3.06705 5.99318 3.06586C5.99798 3.06313 6.00369 3.05989 6.00943 3.05798C6.01276 3.05798 6.01509 3.05704 6.017 3.05627C6.01833 3.05574 6.01946 3.05528 6.02059 3.05528C6.02607 3.05391 6.0316 3.05184 6.03713 3.04978C6.04266 3.04771 6.04819 3.04565 6.05367 3.04427C6.05642 3.04136 6.05917 3.04136 6.06187 3.04136C6.06892 3.03997 6.07519 3.03858 6.08145 3.0372C6.08761 3.03583 6.09376 3.03447 6.10066 3.03311L11.3409 2.0082H11.3466C11.3493 2.0055 11.3548 2.0055 11.3603 2.0055C11.3618 2.00511 11.3633 2.00472 11.3648 2.00434C11.3737 2.002 11.3813 2 11.3907 2H11.4929C11.5036 2 11.5166 2.00253 11.53 2.00512L11.5317 2.00545L17.8991 3.33703C17.9075 3.33984 17.9159 3.34193 17.9244 3.34404C17.9325 3.34605 17.9407 3.34807 17.9488 3.35073C17.9502 3.35073 17.9515 3.35147 17.9529 3.35222C17.9543 3.35296 17.9557 3.3537 17.957 3.3537C17.9625 3.3564 17.9686 3.35843 17.9748 3.36047C17.981 3.36255 17.9873 3.36463 17.9928 3.3674C17.9995 3.3696 18.006 3.37234 18.0123 3.3756C18.0165 3.37699 18.02 3.37912 18.0234 3.38124C18.0269 3.38334 18.0303 3.38543 18.0344 3.38677C18.0385 3.38956 18.042 3.39163 18.0456 3.3937C18.049 3.39573 18.0524 3.39776 18.0565 3.40048C18.0584 3.40143 18.0603 3.40241 18.0622 3.4034C18.0658 3.40526 18.0694 3.40713 18.0731 3.40889C18.0773 3.41165 18.0807 3.41438 18.0841 3.41712C18.0875 3.41986 18.091 3.4226 18.0951 3.42535L18.0954 3.42566C18.1009 3.43112 18.1036 3.43387 18.109 3.43652C18.1145 3.44202 18.1227 3.45022 18.1284 3.45567C18.1338 3.45861 18.1365 3.46133 18.1419 3.46666L18.1421 3.46684C18.1467 3.47385 18.1515 3.47883 18.1562 3.48368C18.157 3.48454 18.1579 3.4854 18.1587 3.48626C18.1615 3.48904 18.1636 3.49182 18.1657 3.49461C18.1677 3.49731 18.1697 3.50002 18.1724 3.50272C18.1753 3.50558 18.1774 3.5084 18.1795 3.51119C18.1816 3.51393 18.1836 3.51664 18.1863 3.51934C18.1891 3.52213 18.1912 3.52562 18.1933 3.52912C18.1953 3.53252 18.1973 3.53594 18.2 3.53876C18.203 3.54146 18.2057 3.54696 18.2084 3.55246C18.2112 3.55663 18.2132 3.56074 18.2153 3.56483C18.2173 3.569 18.2194 3.57314 18.2221 3.57728C18.2256 3.58153 18.2284 3.58621 18.2306 3.5912C18.2322 3.59757 18.2347 3.60303 18.2371 3.60814C18.2388 3.61181 18.2404 3.61531 18.2415 3.61883C18.243 3.62161 18.2437 3.62441 18.2444 3.62722C18.245 3.6299 18.2457 3.63259 18.247 3.63528L18.2554 3.6601C18.2569 3.66318 18.2576 3.66697 18.2583 3.67109C18.259 3.67464 18.2597 3.67843 18.2609 3.68222C18.2625 3.68532 18.2632 3.68849 18.2639 3.69214C18.2645 3.69496 18.2652 3.69807 18.2664 3.70165C18.2678 3.70724 18.2685 3.71358 18.2692 3.71989C18.2699 3.726 18.2706 3.73209 18.2719 3.73747C18.2746 3.74319 18.2746 3.74594 18.2746 3.74864C18.2773 3.76531 18.2773 3.78171 18.2773 3.79839V8.54971L20.5841 9.03314H20.5868C20.5887 9.0335 20.5905 9.03386 20.5924 9.03422C20.605 9.03666 20.619 9.03936 20.6311 9.04415C20.6343 9.04415 20.6366 9.04507 20.6385 9.04584C20.6398 9.04638 20.6409 9.04684 20.6421 9.04684L20.644 9.04735C20.6545 9.05013 20.6648 9.05287 20.6754 9.05801C20.6781 9.0594 20.6816 9.06079 20.6851 9.06218C20.6885 9.06354 20.6919 9.0649 20.6946 9.06627C20.6988 9.06766 20.7023 9.06979 20.7058 9.07192C20.7092 9.074 20.7126 9.07607 20.7167 9.07743C20.7243 9.08162 20.7317 9.08619 20.7388 9.09114C20.7413 9.09361 20.7461 9.09612 20.7512 9.0988L20.7527 9.09956C20.7582 9.10506 20.7664 9.11051 20.7747 9.11601C20.7777 9.11894 20.7807 9.12108 20.7832 9.12291C20.7854 9.12448 20.7873 9.12581 20.7885 9.12718L20.8079 9.14633C20.8134 9.14909 20.8189 9.15205 20.8216 9.1575C20.8245 9.16039 20.8274 9.16401 20.8304 9.16763C20.833 9.17092 20.8357 9.1742 20.8383 9.17693C20.841 9.17968 20.8431 9.18244 20.8452 9.18521C20.8472 9.18792 20.8493 9.19063 20.852 9.19333C20.8549 9.19616 20.8571 9.19906 20.8592 9.20194C20.8612 9.20464 20.8632 9.20733 20.8659 9.20995C20.8687 9.21273 20.8707 9.21621 20.8728 9.21971C20.8748 9.22313 20.8769 9.22657 20.8796 9.22937C20.8826 9.23487 20.8853 9.24032 20.888 9.24582C20.8913 9.24912 20.8937 9.25352 20.8962 9.2583C20.8978 9.26142 20.8996 9.2647 20.9017 9.26795C20.9045 9.27345 20.9074 9.2789 20.9101 9.28462C20.9115 9.28862 20.9135 9.29262 20.9155 9.29666C20.9176 9.30089 20.9197 9.30515 20.9211 9.30949C20.9225 9.31224 20.9232 9.31501 20.9239 9.31777C20.9246 9.32048 20.9252 9.32319 20.9266 9.32589C20.9293 9.33436 20.9323 9.34256 20.935 9.35082C20.9364 9.35506 20.9371 9.35928 20.9378 9.36347C20.9385 9.36755 20.9392 9.3716 20.9405 9.37564C20.9436 9.38169 20.9454 9.38829 20.946 9.39506C20.9474 9.40064 20.9481 9.40697 20.9488 9.4133C20.9495 9.4194 20.9501 9.42549 20.9515 9.43089V9.4393C20.9542 9.45576 20.9542 9.47238 20.9542 9.48905V21.0581ZM11.3934 8.05523C11.3548 8.05253 11.3133 8.04427 11.2775 8.03041L9.23608 7.60212V9.17121L20.0151 11.4337V9.86462L11.3934 8.05523ZM9.23608 11.6133L20.0151 13.8758V12.2238L9.23608 9.96136V11.6133ZM20.0151 16.3011V14.6659L9.23608 12.4034V14.0553L20.0151 16.3011ZM20.0151 17.094L9.23608 14.8452V16.5001L20.0151 18.7459V17.094ZM20.0151 21.0581V19.536L9.23608 17.2873V21.0581H20.0151ZM11.9018 3.04131V7.20168L17.3355 8.34248V4.17671L11.9018 3.04131ZM10.9626 3.03311L6.65585 3.87576L6.65579 6.96142L8.67253 6.56627C8.68335 6.56265 8.69542 6.56141 8.70715 6.5602C8.71328 6.55958 8.71931 6.55896 8.72503 6.55801H8.79118H8.79118C8.80235 6.55801 8.8133 6.55801 8.82447 6.56082C8.82723 6.56082 8.83069 6.5615 8.83414 6.56218C8.83754 6.56285 8.84094 6.56351 8.84362 6.56351C8.84652 6.56351 8.85006 6.56422 8.85356 6.56492C8.85698 6.5656 8.86035 6.56627 8.86304 6.56627L10.9626 7.00545V3.03311ZM6.20835 8.00554L4.45151 8.35073L4.4514 21.0581H8.29669V17.2872L5.28013 17.9087C5.25526 17.9145 5.22764 17.9172 5.20276 17.9172C5.0232 17.9172 4.86302 17.7901 4.82428 17.6078C4.80433 17.5075 4.82477 17.4033 4.88116 17.318C4.93755 17.2326 5.02533 17.173 5.12545 17.1519L8.28854 16.4974V14.8452L5.28294 15.467C5.25807 15.4725 5.23044 15.4752 5.20557 15.4752C5.02601 15.4752 4.86582 15.348 4.82724 15.1658C4.80722 15.0655 4.82761 14.9613 4.88398 14.8759C4.94034 14.7906 5.02813 14.7309 5.12825 14.7099L8.29124 14.0553V12.4006L5.28564 13.0222C5.26076 13.0277 5.23308 13.0304 5.20827 13.0304C5.02871 13.0304 4.86852 12.9033 4.82994 12.721C4.80993 12.6207 4.83032 12.5165 4.88668 12.4312C4.94303 12.3458 5.03079 12.2861 5.1309 12.2651L8.29394 11.6105V9.95855L5.28833 10.5801C5.26346 10.5856 5.23584 10.5884 5.21102 10.5884C5.03146 10.5884 4.87127 10.4613 4.83269 10.2789C4.81266 10.1786 4.83304 10.0745 4.8894 9.98918C4.94577 9.90385 5.03355 9.84423 5.13365 9.82329L8.2968 9.16846V7.59392L6.34367 7.97791C6.30234 7.99453 6.25535 8.00278 6.20835 8.00554ZM13.0453 4.97231L16.3603 5.65472C16.5703 5.69896 16.7056 5.90323 16.6615 6.11062C16.6228 6.29288 16.4626 6.42 16.283 6.42C16.2581 6.42 16.2333 6.41703 16.2056 6.41158L12.8907 5.72939C12.8408 5.71957 12.7933 5.69993 12.7511 5.67161C12.7089 5.64329 12.6728 5.60686 12.6447 5.56443C12.6167 5.522 12.5975 5.47443 12.588 5.42448C12.5786 5.37453 12.5791 5.3232 12.5897 5.27348C12.5995 5.22361 12.6191 5.17618 12.6474 5.13396C12.6757 5.09174 12.7121 5.05557 12.7545 5.02754C12.7969 4.99952 12.8444 4.9802 12.8944 4.97072C12.9443 4.96124 12.9956 4.96178 13.0453 4.97231Z" fill="black"/>
</svg>
