<svg width="24" height="24" viewBox="0 0 24 24" fill="none" xmlns="http://www.w3.org/2000/svg">
<path d="M4.3 19.5C3.8 19.5 3.375 19.325 3.025 18.975C2.675 18.625 2.5 18.2 2.5 17.7V6.3C2.5 5.8 2.675 5.375 3.025 5.025C3.375 4.675 3.8 4.5 4.3 4.5H19.7C20.2 4.5 20.625 4.675 20.975 5.025C21.325 5.375 21.5 5.8 21.5 6.3V17.7C21.5 18.2 21.325 18.625 20.975 18.975C20.625 19.325 20.2 19.5 19.7 19.5H4.3ZM12 12.55L4 7.45V17.7C4 17.7833 4.025 17.8583 4.075 17.925C4.14167 17.975 4.21667 18 4.3 18H19.7C19.7833 18 19.85 17.975 19.9 17.925C19.9667 17.8583 20 17.7833 20 17.7V7.45L12 12.55ZM12 11L19.85 6H4.15L12 11ZM4 7.45V6V7.45V17.7C4 17.7833 4.025 17.8583 4.075 17.925C4.14167 17.975 4.21667 18 4.3 18H4C4 18 4 17.975 4 17.925C4 17.8583 4 17.7833 4 17.7V7.45Z" fill="black"/>
</svg>
