<svg width="24" height="24" viewBox="0 0 24 24" fill="none" xmlns="http://www.w3.org/2000/svg">
<path d="M17.2598 8.9711C18.2785 8.30157 18.9524 7.14883 18.9524 5.8418C18.9524 3.77852 17.2734 2.10001 15.2102 2.10001H8.78986C6.72658 2.10001 5.04767 3.77852 5.04767 5.8418C5.04767 7.14883 5.7215 8.30157 6.74025 8.9711C5.7215 9.64024 5.04767 10.793 5.04767 12.1C5.04767 13.407 5.7215 14.5598 6.74025 15.2293C5.7215 15.8981 5.04767 17.0512 5.04767 18.3582C5.04767 20.4215 6.73556 22.1 8.80978 22.1C10.9067 22.1 12.6129 20.4031 12.6129 18.3176V14.8668C13.2777 15.4727 14.161 15.8418 15.1289 15.8418H15.2102C17.2734 15.8418 18.9524 14.1633 18.9524 12.1C18.9524 10.793 18.2785 9.64024 17.2598 8.9711ZM12.6129 3.32579H15.2102C16.5977 3.32579 17.7266 4.4543 17.7266 5.8418C17.7266 7.2293 16.5977 8.35821 15.2102 8.35821H12.6129V3.32579ZM6.27345 5.8418C6.27345 4.4543 7.40236 3.32579 8.78986 3.32579H11.3871V8.35821H8.78986C7.40236 8.35821 6.27345 7.2293 6.27345 5.8418ZM6.27345 12.1C6.27345 10.7125 7.40236 9.58399 8.78986 9.58399H11.3871V14.6164H8.77384C7.39376 14.6078 6.27345 13.482 6.27345 12.1ZM11.3871 18.3176C11.3871 19.7274 10.2309 20.8742 8.80978 20.8742C7.41134 20.8742 6.27345 19.7457 6.27345 18.3582C6.27345 16.9707 7.40236 15.8418 8.78986 15.8418H11.3871V18.3176ZM15.2102 14.6164H15.1289C13.7414 14.6164 12.6129 13.4875 12.6129 12.1C12.6129 10.7125 13.7414 9.58399 15.1289 9.58399H15.2102C16.5977 9.58399 17.7266 10.7125 17.7266 12.1C17.7266 13.4875 16.5977 14.6164 15.2102 14.6164Z" fill="black"/>
</svg>
