<svg width="24" height="24" viewBox="0 0 24 24" fill="none" xmlns="http://www.w3.org/2000/svg">
<path fill-rule="evenodd" clip-rule="evenodd" d="M16.9755 2.13797L21.3874 5.44732C21.5354 5.55834 21.6333 5.72362 21.6594 5.90679C21.6856 6.08997 21.6379 6.27603 21.5269 6.42406C21.4159 6.57209 21.2506 6.66995 21.0674 6.69611C20.955 6.71218 20.8414 6.70041 20.7362 6.66324V10.2687C20.7362 10.7004 20.5647 11.1145 20.2594 11.4198C19.9541 11.7251 19.5401 11.8966 19.1083 11.8966H13.114C12.2144 11.8966 11.4861 11.1673 11.4861 10.2687V6.66779C11.3665 6.72122 11.2334 6.74037 11.1017 6.72137C10.9187 6.69494 10.7536 6.59686 10.6428 6.44871C10.532 6.30056 10.4846 6.11447 10.5111 5.93139C10.5375 5.7483 10.6356 5.58321 10.7837 5.47244L15.6935 1.80269C15.8142 1.71247 15.961 1.6638 16.1117 1.66397C16.2543 1.66413 16.3931 1.70792 16.5097 1.78915C16.5165 1.79385 16.5231 1.79868 16.5298 1.80363M3.06197 7.94312V4.22222C3.06197 3.58036 3.58289 3.05943 4.22475 3.05943H9.80611C9.99114 3.05943 10.1686 2.98593 10.2994 2.85509C10.4303 2.72425 10.5038 2.5468 10.5038 2.36176C10.5038 2.17673 10.4303 1.99927 10.2994 1.86844C10.1686 1.7376 9.99114 1.66409 9.80611 1.66409H4.22475C3.54629 1.66409 2.89562 1.93361 2.41588 2.41335C1.93614 2.89309 1.66663 3.54376 1.66663 4.22222V7.94312C1.66663 8.12816 1.74013 8.30561 1.87097 8.43645C2.00181 8.56729 2.17926 8.6408 2.3643 8.6408C2.54933 8.6408 2.72678 8.56729 2.85762 8.43645C2.98846 8.30561 3.06197 8.12816 3.06197 7.94312ZM20.2712 14.9198V19.1058C20.2712 19.7477 19.7502 20.2686 19.1084 20.2686H14.4572C14.2722 20.2686 14.0948 20.3421 13.9639 20.473C13.8331 20.6038 13.7596 20.7813 13.7596 20.9663C13.7596 21.1513 13.8331 21.3288 13.9639 21.4596C14.0948 21.5905 14.2722 21.664 14.4572 21.664H19.1084C19.7868 21.664 20.4375 21.3945 20.9172 20.9147C21.397 20.435 21.6665 19.7843 21.6665 19.1058V14.9198C21.6665 14.7348 21.593 14.5573 21.4622 14.4265C21.3313 14.2957 21.1539 14.2222 20.9688 14.2222C20.7838 14.2222 20.6063 14.2957 20.4755 14.4265C20.3447 14.5573 20.2712 14.7348 20.2712 14.9198ZM8.98289 14.4296C8.9631 14.4488 8.94308 14.4678 8.92284 14.4864C9.46845 14.7374 9.97079 15.0848 10.4036 15.5177C11.3635 16.4775 11.903 17.7791 11.9038 19.1365C11.9038 19.8612 11.447 20.4928 10.607 20.9272C9.6796 21.4072 8.23403 21.664 6.78473 21.664C5.33637 21.664 3.8908 21.4072 2.96336 20.9272C2.12337 20.4928 1.66663 19.8612 1.66663 19.1365C1.66737 17.7793 2.2068 16.4778 3.16645 15.518C3.59934 15.085 4.10177 14.7375 4.6475 14.4864C4.62726 14.4678 4.60723 14.4489 4.58743 14.4296C3.99861 13.8581 3.65563 13.0796 3.63123 12.2594C3.63123 10.5189 5.04424 9.10591 6.78469 9.10591C8.52515 9.10591 9.93909 10.5189 9.93909 12.2594C9.91469 13.0796 9.57171 13.8581 8.98289 14.4296ZM6.78473 15.4128C7.77217 15.4133 8.71902 15.8058 9.41724 16.504C10.1155 17.2023 10.5079 18.1491 10.5084 19.1365C10.5084 19.3896 10.2601 19.5356 9.96611 19.6882C9.19588 20.0863 7.98845 20.2686 6.78473 20.2686C5.58195 20.2686 4.37452 20.0863 3.60429 19.6882C3.31034 19.5356 3.06197 19.3896 3.06197 19.1365C3.06221 18.1492 3.45448 17.2023 4.15256 16.5041C4.85063 15.8058 5.79738 15.4133 6.78473 15.4128ZM6.78469 10.5012C7.75585 10.5012 8.54375 11.2892 8.54375 12.2594C8.53319 12.7188 8.34327 13.1558 8.01462 13.477C7.68597 13.7982 7.24469 13.978 6.78516 13.978C6.32563 13.978 5.88435 13.7982 5.5557 13.477C5.22705 13.1558 5.03713 12.7188 5.02657 12.2594C5.02657 11.2892 5.81447 10.5012 6.78469 10.5012ZM13.114 10.5012C13.0523 10.5012 12.9931 10.4767 12.9495 10.4331C12.9059 10.3895 12.8814 10.3304 12.8814 10.2687V5.65663L16.1111 3.23432L19.3409 5.65663V10.2687C19.3409 10.3304 19.3164 10.3895 19.2728 10.4331C19.2292 10.4767 19.17 10.5012 19.1083 10.5012H13.114Z" fill="black"/>
</svg>
