<svg width="24" height="24" viewBox="0 0 24 24" fill="none" xmlns="http://www.w3.org/2000/svg">
<path d="M12.003 2C6.3382 2 1.75 6.5882 1.75 12.253C1.75 16.7899 4.68491 20.6219 8.76046 21.9804C9.27311 22.0702 9.46535 21.7626 9.46535 21.4934C9.46535 21.2499 9.45254 20.4425 9.45254 19.5838C6.87648 20.058 6.21004 18.9558 6.00498 18.3791C5.88963 18.0843 5.3898 17.1744 4.95405 16.9308C4.5952 16.7386 4.08255 16.2644 4.94123 16.2516C5.74866 16.2388 6.32538 16.995 6.51763 17.3025C7.44039 18.8533 8.91426 18.4175 9.5038 18.1484C9.59352 17.482 9.86266 17.0334 10.1574 16.777C7.87615 16.5207 5.49233 15.6364 5.49233 11.7147C5.49233 10.5996 5.88963 9.67691 6.54326 8.9592C6.44073 8.70287 6.08188 7.65195 6.64579 6.24216C6.64579 6.24216 7.50448 5.97302 9.46535 7.29309C10.2856 7.0624 11.1571 6.94705 12.0286 6.94705C12.9001 6.94705 13.7716 7.0624 14.5918 7.29309C16.5528 5.96021 17.4114 6.24216 17.4114 6.24216C17.9753 7.65195 17.6165 8.70287 17.5139 8.9592C18.1676 9.67691 18.5649 10.5869 18.5649 11.7147C18.5649 15.6492 16.1683 16.5207 13.887 16.777C14.2586 17.0975 14.5791 17.7127 14.5791 18.6738C14.5791 20.0452 14.5662 21.1474 14.5662 21.4934C14.5662 21.7626 14.7585 22.0829 15.2711 21.9804C19.3211 20.6219 22.2559 16.777 22.2559 12.253C22.2559 6.5882 17.6677 2 12.003 2Z" fill="black"/>
</svg>
