<svg width="24" height="24" viewBox="0 0 24 24" fill="none" xmlns="http://www.w3.org/2000/svg">
<path fill-rule="evenodd" clip-rule="evenodd" d="M21.9995 5.98818C21.9995 5.98662 21.9995 5.98714 21.9995 5.98829C21.9995 5.98826 21.9995 5.98822 21.9995 5.98818ZM21.9995 5.98856C21.9962 5.84027 21.9351 5.69118 21.8283 5.58714L18.3129 2.07171C18.2021 1.96378 18.0538 1.89999 17.8984 1.89999H8.48437C7.51512 1.89999 6.72656 2.68855 6.72656 3.65781V7.79843H3.75781C2.78855 7.79843 2 8.58699 2 9.55624V16.5875C2 17.5568 2.78855 18.3453 3.75781 18.3453H6.72656V20.1422C6.72656 21.1114 7.51512 21.9 8.48437 21.9H20.2422C21.2114 21.9 22 21.1114 22 20.1422V6.00156M21.9995 5.98856C21.9995 5.98962 21.9995 5.99068 21.9996 5.99174L21.9995 5.98738C21.9995 5.98764 21.9995 5.98791 21.9995 5.98818C21.9995 5.98902 21.9995 5.99048 21.9996 5.99277V5.99269L21.9996 5.99248C21.9995 5.99153 21.9995 5.98954 21.9995 5.98829C21.9995 5.98838 21.9995 5.98847 21.9995 5.98856ZM19.9995 5.41562L18.4844 3.9005V5.41562H19.9995ZM3.17187 16.5875C3.17187 16.9106 3.43473 17.1734 3.75781 17.1734H15.5547C15.8778 17.1734 16.1406 16.9106 16.1406 16.5875V9.55624C16.1406 9.23316 15.8778 8.97031 15.5547 8.97031H3.75781C3.43473 8.97031 3.17187 9.23316 3.17187 9.55624V16.5875ZM20.2422 20.7281C20.5653 20.7281 20.8281 20.4653 20.8281 20.1422V6.58749H17.8984C17.5748 6.58749 17.3125 6.32515 17.3125 6.00156V3.07187H8.48437C8.16129 3.07187 7.89844 3.33472 7.89844 3.65781V7.79843H15.5547C16.5239 7.79843 17.3125 8.58699 17.3125 9.55624V16.5875C17.3125 17.5568 16.5239 18.3453 15.5547 18.3453H7.89844V20.1422C7.89844 20.4653 8.16129 20.7281 8.48437 20.7281H20.2422ZM11.4141 11.9C11.4141 12.2239 11.6761 12.486 12 12.486C12.9716 12.486 13.7578 13.2723 13.7578 14.2438C13.7578 14.7133 13.575 15.1547 13.243 15.4867C12.5559 16.1738 11.444 16.1737 10.757 15.4868C10.5282 15.2579 10.5282 14.8869 10.757 14.6581C10.9858 14.4293 11.3568 14.4293 11.5856 14.6581C11.8147 14.8871 12.1853 14.8871 12.4143 14.6581C12.7842 14.2882 12.5183 13.6578 12 13.6578C11.0284 13.6578 10.2422 12.8716 10.2422 11.9C10.2422 10.9284 11.0284 10.1422 12 10.1422C12.4695 10.1422 12.9109 10.325 13.2429 10.6571C13.4718 10.8859 13.4718 11.2569 13.2429 11.4857C13.0141 11.7145 12.6431 11.7145 12.4143 11.4857C12.0438 11.1151 11.4141 11.3827 11.4141 11.9ZM7.89844 10.7281C7.89844 10.4045 8.16078 10.1422 8.48437 10.1422C8.80797 10.1422 9.07031 10.4045 9.07031 10.7281V14.2437C9.07031 15.213 8.28176 16.0016 7.3125 16.0016C6.34324 16.0016 5.55469 15.213 5.55469 14.2437C5.55469 13.9201 5.81703 13.6578 6.14062 13.6578C6.46422 13.6578 6.72656 13.9201 6.72656 14.2437C6.72656 14.5668 6.98941 14.8297 7.3125 14.8297C7.63559 14.8297 7.89844 14.5668 7.89844 14.2437V10.7281Z" fill="black"/>
</svg>
