<svg width="24" height="24" viewBox="0 0 24 24" fill="none" xmlns="http://www.w3.org/2000/svg">
<path d="M2.60001 5.92C2.60001 5.28 2.83334 4.75333 3.30001 4.34C3.76667 3.91333 4.38667 3.7 5.16001 3.7C5.92001 3.7 6.53334 3.91333 7.00001 4.34C7.46667 4.75333 7.70001 5.28 7.70001 5.92C7.70001 6.54666 7.46667 7.06666 7.00001 7.48C6.53334 7.89333 5.92001 8.1 5.16001 8.1C4.38667 8.1 3.76667 7.89333 3.30001 7.48C2.83334 7.06666 2.60001 6.54666 2.60001 5.92ZM7.36001 9V20.28H2.92001V9H7.36001Z" fill="black"/>
<path d="M17.2653 8.92C18.5587 8.92 19.5653 9.35333 20.2853 10.22C21.0187 11.0867 21.3853 12.26 21.3853 13.74V20.28H16.9653V14.3C16.9653 13.7667 16.8187 13.3467 16.5253 13.04C16.2453 12.72 15.8653 12.56 15.3853 12.56C14.892 12.56 14.5053 12.72 14.2253 13.04C13.9453 13.3467 13.8053 13.7667 13.8053 14.3V20.28H9.36532V9H13.8053V10.72C14.152 10.1867 14.612 9.75333 15.1853 9.42C15.772 9.08666 16.4653 8.92 17.2653 8.92Z" fill="black"/>
</svg>
