<svg xmlns="http://www.w3.org/2000/svg" width="24" height="24" viewBox="0 0 24 24" fill="none">
<path d="M20.082 1.75C21.2773 1.75022 22.246 2.72351 22.2461 3.91406V4.7998C22.2478 4.81878 22.25 4.83811 22.25 4.85742C22.25 4.87683 22.2478 4.89597 22.2461 4.91504V12.9629C22.2478 12.9819 22.25 13.0011 22.25 13.0205C22.25 13.0399 22.2478 13.0591 22.2461 13.0781V13.958L22.2354 14.1797C22.1278 15.2719 21.2027 16.1278 20.0859 16.1279H15.3428C14.1473 16.1279 13.1787 15.1536 13.1787 13.9629V10.0088H13.1514C12.767 10.0088 12.4541 10.3217 12.4541 10.7061V14.1143C12.4541 15.0952 11.7476 15.9137 10.8174 16.0908V19.085C10.8191 19.104 10.8213 19.1232 10.8213 19.1426C10.8213 19.1619 10.819 19.1812 10.8174 19.2002V20.0811L10.8066 20.3018C10.6993 21.3941 9.77413 22.25 8.65723 22.25H3.91406C2.7231 22.2499 1.75012 21.2769 1.75 20.0859V10.0371C1.75 8.84162 2.72338 7.87219 3.91406 7.87207H8.65332C9.84876 7.87221 10.8174 8.84641 10.8174 10.0371V10.9219C10.8191 10.9409 10.8213 10.9601 10.8213 10.9795C10.8213 10.9989 10.8191 11.0181 10.8174 11.0371V14.6973C11.0091 14.5729 11.1377 14.3592 11.1377 14.1143V10.7061C11.1377 9.59659 12.0419 8.69238 13.1514 8.69238H13.1787V3.91406C13.1788 2.71863 14.1521 1.75005 15.3428 1.75H20.082ZM17.1016 20.5254C17.465 20.5254 17.7597 20.8201 17.7598 21.1836C17.7598 21.5471 17.4651 21.8418 17.1016 21.8418C16.7383 21.8415 16.4443 21.5469 16.4443 21.1836C16.4444 20.8203 16.7383 20.5256 17.1016 20.5254ZM3.06641 20.082C3.06662 20.5513 3.44768 20.9296 3.91406 20.9297H8.65332C9.12256 20.9295 9.50076 20.5484 9.50098 20.082V19.8008H3.06641V20.082ZM20.5713 17.2598C21.0474 17.2598 21.4334 17.646 21.4336 18.1221C21.4336 18.5983 21.0475 18.9844 20.5713 18.9844C20.0951 18.9843 19.709 18.5982 19.709 18.1221C19.7092 17.6461 20.0953 17.2598 20.5713 17.2598ZM12.6123 17.2598C12.9756 17.2598 13.2703 17.5547 13.2705 17.918C13.2705 18.2814 12.9758 18.5761 12.6123 18.5762C12.2488 18.5762 11.9541 18.2815 11.9541 17.918C11.9543 17.5547 12.2489 17.2598 12.6123 17.2598ZM3.06641 18.4844H9.50098V16.1279H7.84473C7.57778 16.8427 6.89033 17.3514 6.08203 17.3516C5.04203 17.3516 4.1994 16.5097 4.19922 15.4697C4.19922 14.4296 5.04192 13.5869 6.08203 13.5869C6.89055 13.5871 7.57794 14.0965 7.84473 14.8115H9.50098V11.6377H3.06641V18.4844ZM6.08203 14.9033C5.77112 14.9033 5.51562 15.1588 5.51562 15.4697C5.51581 15.7805 5.77124 16.0361 6.08203 16.0361C6.39265 16.0359 6.64825 15.7803 6.64844 15.4697C6.64844 15.159 6.39276 14.9035 6.08203 14.9033ZM14.4951 13.959C14.4951 14.4284 14.8762 14.8076 15.3428 14.8076H20.082C20.5513 14.8074 20.9297 14.4255 20.9297 13.959V13.6787H14.4951V13.959ZM14.4951 8.69238H16.8721C16.8195 8.47692 16.8754 8.24076 17.0439 8.07227L17.1465 7.98828C17.4016 7.81949 17.7478 7.84745 17.9727 8.07227L18.7461 8.8457C18.8904 8.96576 18.9842 9.14692 18.9844 9.35059C18.9844 9.54141 18.9014 9.71242 18.7725 9.83203L18.7734 9.83301L17.9727 10.6338C17.7501 10.8563 17.4012 10.8819 17.1465 10.7139L17.0439 10.6299C16.8752 10.4612 16.8191 10.2245 16.8721 10.0088H14.4951V12.3623H20.9297V5.51562H14.4951V8.69238ZM3.91406 9.18848C3.44815 9.1886 3.06641 9.57117 3.06641 10.0371V10.3213H9.50098V10.0371C9.50098 9.56771 9.11982 9.18862 8.65332 9.18848H3.91406ZM11.7959 5.42383C12.1594 5.42383 12.4541 5.71854 12.4541 6.08203C12.4539 6.44534 12.1593 6.74023 11.7959 6.74023C11.4325 6.74022 11.1379 6.44534 11.1377 6.08203C11.1377 5.71854 11.4324 5.42384 11.7959 5.42383ZM3.63281 3.79102C3.99623 3.7911 4.29102 4.08578 4.29102 4.44922C4.29089 4.81255 3.99615 5.10734 3.63281 5.10742C3.2694 5.10742 2.97474 4.8126 2.97461 4.44922C2.97461 4.08572 3.26932 3.79102 3.63281 3.79102ZM8.73438 3.38281C9.21058 3.38281 9.59668 3.76891 9.59668 4.24512C9.59656 4.72122 9.21051 5.10742 8.73438 5.10742C8.25839 5.10725 7.87219 4.72111 7.87207 4.24512C7.87207 3.76902 8.25832 3.38298 8.73438 3.38281ZM15.3428 3.06641C14.8769 3.06645 14.4952 3.44818 14.4951 3.91406V4.19922H20.9297V3.91406C20.9296 3.44481 20.5484 3.06662 20.082 3.06641H15.3428Z" fill="black"/>
</svg>