<svg width="24" height="24" viewBox="0 0 24 24" fill="none" xmlns="http://www.w3.org/2000/svg">
<path fill-rule="evenodd" clip-rule="evenodd" d="M2 22.1V2.10001H22V22.1H2ZM3.23711 20.8629H20.7629V3.33712H3.23711V20.8629ZM13.303 15.0941C13.7191 15.3438 14.5774 15.6429 15.2482 15.6429C15.9283 15.6429 16.2131 15.4049 16.2131 15.033C16.2131 14.6624 15.9894 14.4856 15.1468 14.2008C13.6424 13.6976 13.0636 12.8796 13.0793 12.0162C13.0793 10.6651 14.2379 9.63914 16.035 9.63914C16.8841 9.63914 17.6409 9.83159 18.0869 10.0553L17.6864 11.6156C17.3561 11.4375 16.7359 11.1982 16.1117 11.1982C15.563 11.1982 15.2534 11.4219 15.2534 11.7925C15.2534 12.1332 15.5331 12.3114 16.4212 12.6261C17.8035 13.0981 18.3821 13.7989 18.3978 14.8666C18.3978 16.2228 17.325 17.2176 15.2482 17.2176C14.2977 17.2176 13.4499 17.0095 12.9012 16.7104L13.303 15.0941ZM8.61381 13.5298C8.32 13.5298 8.0508 13.5194 7.84276 13.4894L7.84272 17.0707H5.60219V7.19056C6.29794 7.07361 7.27835 6.98248 8.65934 6.98248C10.0572 6.98248 11.052 7.24644 11.7178 7.78479C12.3627 8.28805 12.7892 9.12157 12.7892 10.1021C12.7892 11.0812 12.4642 11.9147 11.8647 12.4791C11.0975 13.2047 9.9506 13.5298 8.61381 13.5298ZM8.77645 8.68982C8.32004 8.68982 8.00532 8.73535 7.84668 8.78091V11.7366C8.04041 11.7783 8.27443 11.7925 8.59955 11.7925C9.80235 11.7925 10.5501 11.184 10.5501 10.1567C10.5449 9.23728 9.90903 8.68982 8.77645 8.68982Z" fill="black"/>
</svg>
