<svg width="24" height="24" viewBox="0 0 24 24" fill="none" xmlns="http://www.w3.org/2000/svg">
<path d="M12 3.35545C13.6818 2.17033 15.8801 1.31509 17.75 2.39452C19.6198 3.47405 19.9783 5.80542 19.793 7.85448C21.6604 8.71843 23.5 10.1951 23.5 12.3545C23.4999 14.5136 21.6603 15.9896 19.793 16.8535C19.9784 18.9027 19.6199 21.2338 17.75 22.3135C15.88 23.3931 13.6819 22.5378 12 21.3525C10.3181 22.5378 8.12003 23.3931 6.25 22.3135C4.38007 21.2338 4.02059 18.9027 4.20605 16.8535C2.33901 15.9895 0.500097 14.5133 0.5 12.3545C0.5 10.1954 2.33888 8.71849 4.20605 7.85448C4.02071 5.80544 4.38021 3.47404 6.25 2.39452C8.11988 1.31511 10.3182 2.17033 12 3.35545ZM5.6709 17.4238C5.59338 19.1373 6.02349 20.4508 7 21.0146C7.97639 21.5783 9.32844 21.2937 10.7734 20.3701C10.054 19.7239 9.34697 18.9647 8.67383 18.1142C7.60087 17.9565 6.5901 17.7238 5.6709 17.4238ZM18.3281 17.4238C17.4089 17.7237 16.3982 17.9565 15.3252 18.1142C14.652 18.9647 13.9451 19.7239 13.2256 20.3701C14.6708 21.2941 16.0235 21.5784 17 21.0146C17.9765 20.4508 18.4056 19.1374 18.3281 17.4238ZM10.8301 18.3252C11.2174 18.7391 11.6091 19.1155 12 19.4512C12.3907 19.1156 12.7818 18.7389 13.1689 18.3252C12.7838 18.3441 12.3937 18.3545 12 18.3545C11.6059 18.3545 11.2156 18.3441 10.8301 18.3252ZM12 7.85448C11.1311 7.85448 10.2881 7.90431 9.48438 7.99803C9.00151 8.64706 8.53683 9.35226 8.10254 10.1045C7.66832 10.8566 7.28935 11.6109 6.96875 12.3535C7.28952 13.0966 7.66799 13.8518 8.10254 14.6045C8.53674 15.3565 9.00162 16.061 9.48438 16.7099C10.2882 16.8037 11.1311 16.8545 12 16.8545C12.8686 16.8545 13.7112 16.8036 14.5146 16.7099C14.9975 16.0609 15.4632 15.3567 15.8975 14.6045C16.3319 13.8519 16.7095 13.0965 17.0303 12.3535C16.7097 11.611 16.3316 10.8565 15.8975 10.1045C15.4631 9.35209 14.9976 8.64718 14.5146 7.99803C13.7112 7.90438 12.8685 7.85448 12 7.85448ZM17.7549 14.3262C17.5785 14.6694 17.3933 15.0132 17.1963 15.3545C16.9992 15.6958 16.7941 16.0281 16.585 16.3525C17.1372 16.2241 17.6592 16.0731 18.1455 15.9023C18.0502 15.3959 17.9197 14.8686 17.7549 14.3262ZM6.24414 14.3252C6.07919 14.8679 5.94882 15.3957 5.85352 15.9023C6.33976 16.0731 6.86181 16.224 7.41406 16.3525C7.20499 16.0282 7.00068 15.6956 6.80371 15.3545C6.60647 15.0128 6.42066 14.6689 6.24414 14.3252ZM4.44434 9.40721C2.92181 10.1968 2 11.227 2 12.3545C2.00009 13.4817 2.92228 14.5103 4.44434 15.2998C4.6442 14.3537 4.94773 13.3616 5.34766 12.3535C4.94778 11.3453 4.6441 10.3533 4.44434 9.40721ZM19.5547 9.40721C19.3549 10.3534 19.0513 11.3453 18.6514 12.3535C19.0513 13.3617 19.3548 14.3537 19.5547 15.2998C21.0772 14.5102 21.9999 13.4819 22 12.3545C22 11.2268 21.0777 10.1969 19.5547 9.40721ZM12 10.3545C13.1046 10.3545 14 11.2499 14 12.3545C13.9999 13.459 13.1045 14.3545 12 14.3545C10.8955 14.3545 10.0001 13.459 10 12.3545C10 11.2499 10.8954 10.3545 12 10.3545ZM7.41406 8.35545C6.86195 8.4839 6.33966 8.63397 5.85352 8.80467C5.94875 9.31124 6.07829 9.8392 6.24316 10.3818C6.41952 10.0385 6.60667 9.69577 6.80371 9.35448C7.00079 9.01313 7.20488 8.6799 7.41406 8.35545ZM16.585 8.35545C16.7942 8.68003 16.9991 9.01298 17.1963 9.35448C17.3932 9.6955 17.5786 10.0388 17.7549 10.3818C17.9198 9.83908 18.0502 9.31136 18.1455 8.80467C17.6593 8.634 17.1371 8.48387 16.585 8.35545ZM17 3.69432C16.0235 3.13055 14.6708 3.41402 13.2256 4.33788C13.9449 4.98385 14.6521 5.74253 15.3252 6.59276C16.3981 6.75043 17.409 6.9833 18.3281 7.28319C18.4053 5.57048 17.9761 4.25799 17 3.69432ZM10.7734 4.33788C9.32851 3.41436 7.97634 3.13063 7 3.69432C6.02387 4.25797 5.59372 5.57048 5.6709 7.28319C6.59003 6.98326 7.60097 6.75048 8.67383 6.59276C9.34683 5.74255 10.0541 4.98386 10.7734 4.33788ZM12 5.25682C11.609 5.59258 11.2165 5.96873 10.8291 6.3828C11.2149 6.36384 11.6056 6.35448 12 6.35448C12.3937 6.35448 12.7838 6.3639 13.1689 6.3828C12.7818 5.96912 12.3907 5.59231 12 5.25682Z" fill="black"/>
</svg>
