<svg width="24" height="24" viewBox="0 0 24 24" fill="none" xmlns="http://www.w3.org/2000/svg">
<path fill-rule="evenodd" clip-rule="evenodd" d="M19.0703 2H21.4141C21.7377 2 22 2.26234 22 2.58594V4.92969C22 5.25328 21.7377 5.51562 21.4141 5.51562H19.0703C18.7467 5.51562 18.4844 5.25328 18.4844 4.92969V4.34375H16.0478C18.1575 5.67996 19.4464 7.93172 19.6013 10.3376C20.2915 10.5749 20.7891 11.2302 20.7891 12C20.7891 12.9693 20.0005 13.7578 19.0312 13.7578C18.062 13.7578 17.2734 12.9693 17.2734 12C17.2734 11.243 17.7545 10.5962 18.427 10.3493C18.2189 7.58961 16.2318 5.21277 13.5744 4.5384C13.2863 5.11695 12.689 5.51562 12 5.51562C11.311 5.51562 10.7137 5.11695 10.4256 4.53836C7.76828 5.21273 5.78109 7.58957 5.57305 10.3492C6.24551 10.5962 6.72656 11.243 6.72656 12C6.72656 12.9693 5.93801 13.7578 4.96875 13.7578C3.99949 13.7578 3.21094 12.9693 3.21094 12C3.21094 11.2302 3.70852 10.5749 4.39875 10.3376C4.55332 7.93652 5.83832 5.67477 7.95222 4.33594H5.51562V4.92969C5.51562 5.25328 5.25328 5.51562 4.92969 5.51562H2.58594C2.26234 5.51562 2 5.25328 2 4.92969V2.58594C2 2.26234 2.26234 2 2.58594 2H4.92969C5.25328 2 5.51562 2.26234 5.51562 2.58594V3.17188H10.343C10.5848 2.48992 11.2361 2 12 2C12.7639 2 13.4152 2.48992 13.657 3.17188H18.4844V2.58594C18.4844 2.26234 18.7467 2 19.0703 2ZM3.17188 4.34375H4.34375V3.17188H3.17188V4.34375ZM4.38281 12C4.38281 12.3231 4.64566 12.5859 4.96875 12.5859C5.29184 12.5859 5.55469 12.3231 5.55469 12C5.55469 11.6769 5.29184 11.4141 4.96875 11.4141C4.64566 11.4141 4.38281 11.6769 4.38281 12ZM11.4141 3.75781C11.4141 4.0809 11.6769 4.34375 12 4.34375C12.3231 4.34375 12.5859 4.0809 12.5859 3.75781C12.5859 3.43473 12.3231 3.17188 12 3.17188C11.6769 3.17188 11.4141 3.43473 11.4141 3.75781ZM19.6172 12C19.6172 11.6769 19.3543 11.4141 19.0312 11.4141C18.7082 11.4141 18.4453 11.6769 18.4453 12C18.4453 12.3231 18.7082 12.5859 19.0312 12.5859C19.3543 12.5859 19.6172 12.3231 19.6172 12ZM19.6562 4.34375H20.8281V3.17188H19.6562V4.34375ZM12.4875 6.9875L17.175 14.0187C17.2501 14.1314 17.2839 14.2667 17.2706 14.4015C17.2572 14.5363 17.1976 14.6623 17.1018 14.7581C15.9327 15.927 15.1887 17.4551 14.986 19.0901C15.078 19.1641 15.1655 19.2434 15.2482 19.3277C15.7985 19.8907 16.1016 20.6316 16.1016 21.4141C16.1016 21.7377 15.8392 22 15.5156 22H8.48438C8.16078 22 7.89844 21.7377 7.89844 21.4141C7.89844 20.6316 8.20152 19.8907 8.75188 19.3277C8.83453 19.2435 8.92205 19.1641 9.01399 19.0902C8.81129 17.4552 8.06723 15.9271 6.8982 14.7581C6.80242 14.6623 6.74278 14.5363 6.72943 14.4015C6.71609 14.2667 6.74986 14.1315 6.825 14.0187L11.5125 6.9875L11.513 6.98676C11.5147 6.98426 11.5165 6.98187 11.5182 6.97941C11.7393 6.65941 12.2095 6.63871 12.4564 6.94551C12.4653 6.95649 12.4737 6.9678 12.4818 6.97941C12.4835 6.98187 12.4853 6.98426 12.487 6.98676L12.4875 6.9875ZM12.5859 14.3438C12.5859 14.0207 12.3231 13.7578 12 13.7578C11.6769 13.7578 11.4141 14.0207 11.4141 14.3438C11.4141 14.6668 11.6769 14.9297 12 14.9297C12.3231 14.9297 12.5859 14.6668 12.5859 14.3438ZM10.8281 19.6172C10.0749 19.6172 9.41403 20.1315 9.17024 20.8281H14.8298C14.586 20.1315 13.9251 19.6172 13.1719 19.6172H10.8281ZM13.1719 18.4453C13.4122 18.4452 13.6517 18.4751 13.8846 18.5345C14.1588 16.9552 14.8709 15.4789 15.9412 14.2807L12.5859 9.24773V12.6868C13.2679 12.9286 13.7578 13.5799 13.7578 14.3438C13.7578 15.313 12.9693 16.1016 12 16.1016C11.0307 16.1016 10.2422 15.313 10.2422 14.3438C10.2422 13.5799 10.7321 12.9286 11.4141 12.6868V9.24773L8.05879 14.2807C9.12906 15.479 9.84122 16.9553 10.1154 18.5345C10.3459 18.4757 10.5848 18.4453 10.8281 18.4453H13.1719Z" fill="black"/>
</svg>
