<svg width="24" height="24" viewBox="0 0 24 24" fill="none" xmlns="http://www.w3.org/2000/svg">
<path fill-rule="evenodd" clip-rule="evenodd" d="M2.2253 2.2253C2.36956 2.08104 2.56522 2 2.76924 2H19.6925C19.8965 2 20.0921 2.08104 20.2364 2.2253C20.3806 2.36956 20.4617 2.56522 20.4617 2.76924V8.27082C20.4617 8.47484 20.3806 8.67049 20.2364 8.81475C20.0921 8.95901 19.8965 9.04006 19.6925 9.04006C19.4884 9.04006 19.2928 8.95901 19.1485 8.81475C19.0043 8.67049 18.9232 8.47484 18.9232 8.27082V3.53847H3.53847V18.9232H7.81851C8.02252 18.9232 8.21818 19.0043 8.36244 19.1485C8.5067 19.2928 8.58775 19.4884 8.58775 19.6925C8.58775 19.8965 8.5067 20.0921 8.36244 20.2364C8.21818 20.3806 8.02252 20.4617 7.81851 20.4617H2.76924C2.56522 20.4617 2.36956 20.3806 2.2253 20.2364C2.08104 20.0921 2 19.8965 2 19.6925V2.76924C2 2.56522 2.08104 2.36956 2.2253 2.2253ZM17.4232 10.3516C17.5644 10.2103 17.755 10.1295 17.9547 10.1262C18.0578 10.1246 18.1602 10.1437 18.2557 10.1824C18.3512 10.2212 18.438 10.2787 18.5109 10.3516L21.774 13.6155C21.8456 13.6869 21.9025 13.7718 21.9413 13.8653C21.98 13.9587 22 14.0589 22 14.1601C22 14.2613 21.98 14.3615 21.9413 14.4549C21.9025 14.5484 21.8456 14.6333 21.774 14.7047L14.7039 21.7748C14.5597 21.919 14.3641 22.0001 14.1601 22.0002H10.8955C10.6914 22.0002 10.4958 21.9191 10.3515 21.7749C10.2073 21.6306 10.1262 21.4349 10.1262 21.2309V17.9678C10.1263 17.7638 10.2073 17.5682 10.3516 17.424L17.4232 10.3516ZM20.1425 14.1593L17.9671 11.9839L11.6647 18.2863V20.4617H13.8401L20.1425 14.1593ZM16.6047 7.38466H8.9339C8.50928 7.39081 8.16159 7.05158 8.1539 6.62312C8.15275 6.52051 8.17217 6.41872 8.21101 6.32374C8.24984 6.22876 8.3073 6.14252 8.38 6.0701C8.4527 5.99769 8.53917 5.94057 8.6343 5.90211C8.72943 5.86365 8.8313 5.84464 8.9339 5.84619H16.6047C17.6447 5.8308 17.6447 7.40004 16.6047 7.38466ZM13.1432 12.0001H8.9339C8.50928 12.0062 8.16159 11.667 8.1539 11.2385C8.15275 11.1359 8.17217 11.0341 8.21101 10.9392C8.24984 10.8442 8.3073 10.7579 8.38 10.6855C8.4527 10.6131 8.53917 10.556 8.6343 10.5175C8.72943 10.4791 8.8313 10.4601 8.9339 10.4616H13.1432C14.1832 10.4462 14.1832 12.0155 13.1432 12.0001ZM6.39012 7.15936C6.53438 7.0151 6.61542 6.81944 6.61542 6.61542C6.61542 6.41141 6.53438 6.21575 6.39012 6.07149C6.24586 5.92723 6.0502 5.84619 5.84619 5.84619C5.64217 5.84619 5.44651 5.92723 5.30225 6.07149C5.15799 6.21575 5.07695 6.41141 5.07695 6.61542C5.07695 6.81944 5.15799 7.0151 5.30225 7.15936C5.44651 7.30362 5.64217 7.38466 5.84619 7.38466C6.0502 7.38466 6.24586 7.30362 6.39012 7.15936ZM6.39012 11.7748C6.53438 11.6305 6.61542 11.4349 6.61542 11.2308C6.61542 11.0268 6.53438 10.8312 6.39012 10.6869C6.24586 10.5427 6.0502 10.4616 5.84619 10.4616C5.64217 10.4616 5.44651 10.5427 5.30225 10.6869C5.15799 10.8312 5.07695 11.0268 5.07695 11.2308C5.07695 11.4349 5.15799 11.6305 5.30225 11.7748C5.44651 11.919 5.64217 12.0001 5.84619 12.0001C6.0502 12.0001 6.24586 11.919 6.39012 11.7748Z" fill="black"/>
</svg>
