<svg width="24" height="24" viewBox="0 0 24 24" fill="none" xmlns="http://www.w3.org/2000/svg">
<path d="M17.6729 1.37149L22.4111 3.52286L22.7783 3.68887V20.2484L22.4121 20.4154L17.6729 22.5697L17.2832 22.7465L16.9775 22.4467L9.22656 14.8617L4.48438 18.3568L4.1416 18.6088L3.78027 18.3822L1.89551 17.1977L1.61035 17.018L1.60352 16.6811L1.41602 7.21817L1.26562 7.07071L1.96191 6.65469L4.03516 5.41641L4.39648 5.20059L4.73242 5.4545L9.25977 8.87833L16.9824 1.48965L17.2881 1.19669L17.6729 1.37149ZM18.0664 21.016L21.5283 19.4438V4.49356L18.0664 2.92227V21.016ZM3.29883 7.31094L16.8164 20.5395V16.1127L8.93262 10.1986L8.93066 10.1967L4.31348 6.70547L3.29883 7.31094ZM3.21973 16.5531L4.08398 17.0971L8.25781 14.0219L6.95312 12.7777L3.21973 16.5531ZM2.82422 15.1762L4.10742 13.8783V9.85196L2.69141 8.46622L2.82422 15.1762ZM16.8164 9.13809C16.135 9.64749 15.3421 10.2433 14.6436 10.7758C14.1479 11.1536 13.7016 11.4975 13.377 11.7553C13.3276 11.7944 13.2821 11.8321 13.2393 11.8666L16.8164 14.5502V9.13809ZM5.35742 12.6137L6.13086 11.8324L5.35742 11.0746V12.6137ZM10.2715 9.64005L12.21 11.0941C12.3115 11.0082 12.4447 10.8998 12.5996 10.7768C12.9341 10.5112 13.3881 10.161 13.8857 9.78165C14.8671 9.03362 16.0301 8.16185 16.8164 7.57755V3.37637L10.2715 9.64005Z" fill="black"/>
</svg>
