<svg width="24" height="24" viewBox="0 0 24 24" fill="none" xmlns="http://www.w3.org/2000/svg">
<path fill-rule="evenodd" clip-rule="evenodd" d="M21.6666 4.68991V7.94572V12.5969C21.6666 12.7819 21.5931 12.9594 21.4623 13.0902C21.3314 13.2211 21.154 13.2946 20.969 13.2946C20.7839 13.2946 20.6065 13.2211 20.4756 13.0902C20.3448 12.9594 20.2713 12.7819 20.2713 12.5969V8.6434H3.06197V18.6434C3.06197 19.0751 3.23349 19.4892 3.53878 19.7945C3.84407 20.0998 4.25813 20.2713 4.68988 20.2713H11.6666C11.8517 20.2713 12.0291 20.3448 12.16 20.4756C12.2908 20.6065 12.3643 20.7839 12.3643 20.969C12.3643 21.154 12.2908 21.3315 12.16 21.4623C12.0291 21.5932 11.8517 21.6667 11.6666 21.6667H4.68988C3.88806 21.6667 3.11909 21.3481 2.55212 20.7812C1.98515 20.2142 1.66663 19.4452 1.66663 18.6434V7.94572V4.68991C1.66663 3.88809 1.98515 3.11912 2.55212 2.55215C3.11909 1.98518 3.88806 1.66666 4.68988 1.66666H18.6434C19.4452 1.66666 20.2142 1.98518 20.7811 2.55215C21.3481 3.11912 21.6666 3.88809 21.6666 4.68991ZM20.2713 4.68991V7.24805H3.06197V4.68991C3.06197 3.79038 3.79035 3.06201 4.68988 3.06201H18.6434C19.5429 3.06201 20.2713 3.79038 20.2713 4.68991ZM6.08517 5.15503C6.08517 5.54034 5.77281 5.8527 5.38749 5.8527C5.00218 5.8527 4.68982 5.54034 4.68982 5.15503C4.68982 4.76971 5.00218 4.45735 5.38749 4.45735C5.77281 4.45735 6.08517 4.76971 6.08517 5.15503ZM8.41085 5.15503C8.41085 5.54034 8.09849 5.8527 7.71318 5.8527C7.32786 5.8527 7.0155 5.54034 7.0155 5.15503C7.0155 4.76971 7.32786 4.45735 7.71318 4.45735C8.09849 4.45735 8.41085 4.76971 8.41085 5.15503ZM10.0387 5.8527C10.4241 5.8527 10.7364 5.54034 10.7364 5.15503C10.7364 4.76971 10.4241 4.45735 10.0387 4.45735C9.65343 4.45735 9.34107 4.76971 9.34107 5.15503C9.34107 5.54034 9.65343 5.8527 10.0387 5.8527ZM17.7766 19.1633L16.5903 20.7095C16.4403 20.9052 16.2366 21.053 16.0041 21.1349C15.7715 21.2168 15.5201 21.2292 15.2806 21.1706C15.0411 21.112 14.8238 20.985 14.6553 20.805C14.4868 20.6249 14.3743 20.3998 14.3317 20.1569L13.127 13.3132C13.0859 13.0753 13.1132 12.8306 13.206 12.6078C13.2987 12.3849 13.453 12.193 13.6508 12.0546C13.8485 11.9161 14.0816 11.8368 14.3228 11.826C14.5639 11.8151 14.8032 11.8731 15.0126 11.9932L21.0312 15.4657C21.2446 15.5891 21.4174 15.7718 21.5288 15.9917C21.6401 16.2116 21.6851 16.459 21.6583 16.704C21.6315 16.949 21.534 17.1809 21.3777 17.3715C21.2215 17.562 21.0132 17.7031 20.7782 17.7774L18.9191 18.3632L20.4638 20.569C20.5164 20.644 20.5536 20.7287 20.5734 20.8182C20.5932 20.9076 20.5952 21.0001 20.5793 21.0903C20.5633 21.1806 20.5298 21.2668 20.4805 21.344C20.4313 21.4213 20.3673 21.4881 20.2922 21.5406C20.2171 21.5931 20.1325 21.6304 20.043 21.6502C19.9536 21.67 19.8611 21.672 19.7708 21.656C19.6806 21.6401 19.5944 21.6065 19.5172 21.5573C19.4399 21.508 19.3731 21.444 19.3206 21.369L17.7766 19.1633ZM17.5922 17.3188L20.087 16.5318L14.5475 13.3355L15.6563 19.635L17.2489 17.5588C17.3357 17.4451 17.4556 17.3613 17.5922 17.3188Z" fill="black"/>
</svg>
