<svg width="24" height="24" viewBox="0 0 24 24" fill="none" xmlns="http://www.w3.org/2000/svg">
<path d="M12 1.89999C6.48468 1.89999 2 6.38467 2 11.9C2 17.4153 6.48468 21.9 12 21.9C17.5153 21.9 22 17.4153 22 11.9C22 6.38467 17.5153 1.89999 12 1.89999ZM12 3.33453C14.2238 3.33453 16.2526 4.18412 17.7753 5.57687C17.52 5.52581 17.2646 5.53509 17.0093 5.6233C16.3129 5.86471 15.7233 6.87214 16.1597 7.71708C16.3593 8.10241 16.7632 8.65487 17.1996 9.23518C17.4828 9.61123 18.0956 10.9808 17.5664 12.991C17.1903 14.4116 16.415 16.8629 16.415 16.8629L13.3046 7.80064H14.2841C14.4838 7.80064 14.6462 7.63816 14.6462 7.43853C14.6462 7.2389 14.4838 7.07641 14.2841 7.07641H9.53482C9.33519 7.07641 9.1727 7.2389 9.1727 7.43853C9.1727 7.63816 9.33519 7.80064 9.53482 7.80064H10.3519L11.7725 11.5054L9.92943 17.0114L6.83287 7.80529H7.81708C8.01671 7.80529 8.1792 7.6428 8.1792 7.44317C8.1792 7.24354 8.01671 7.08105 7.81708 7.08105H4.92015C6.46611 4.82014 9.06128 3.33453 12 3.33453ZM3.43454 11.9C3.43454 10.679 3.68988 9.51838 4.15413 8.46917L8.28134 19.6159C5.41226 18.2278 3.43454 15.289 3.43454 11.9ZM9.51161 20.0987L12.1857 12.6985L14.8644 19.978C13.9684 20.2983 13.0074 20.4701 12.0046 20.4701C11.1365 20.4655 10.3008 20.3401 9.51161 20.0987ZM16.5265 19.1702C17.0604 17.5871 18.9266 12.0625 19.2748 10.9668C19.6045 9.93621 19.8737 9.33732 19.8552 8.47845C20.3148 9.52766 20.5701 10.6837 20.5701 11.9C20.5655 14.9641 18.9499 17.6567 16.5265 19.1702Z" fill="black"/>
</svg>
