<svg width="24" height="24" viewBox="0 0 24 24" fill="none" xmlns="http://www.w3.org/2000/svg">
<path d="M22 22.1H2V2.10001H22V22.1ZM3.2373 20.8627H20.7627V3.33731H3.2373V20.8627ZM18.0166 8.10001C18.1603 8.10008 18.244 8.18389 18.2441 8.32755V16.2719C18.2441 16.4158 18.1605 16.5003 18.0166 16.5004H16.2168C16.0728 16.5004 15.9883 16.4159 15.9883 16.2719V16.0199C15.9882 15.936 15.9288 15.9245 15.8809 15.9965C15.5929 16.3684 15.1724 16.5961 14.5244 16.5961C13.4684 16.5961 12.5329 15.8756 12.1729 14.6996C12.0409 14.2557 11.9922 13.7998 11.9922 13.3559C11.9922 12.8279 12.0649 12.3117 12.2568 11.8197C12.6169 10.908 13.4324 10.1646 14.6201 10.1645C15.2201 10.1645 15.6169 10.3444 15.8809 10.6684C15.9407 10.7278 15.9883 10.7033 15.9883 10.6195V8.32755C15.9885 8.18383 16.073 8.10001 16.2168 8.10001H18.0166ZM7.16113 8.10001C7.28113 8.10001 7.36578 8.14797 7.42578 8.26797L8.56543 10.4516C8.60143 10.5236 8.64955 10.5236 8.68555 10.4516L9.8252 8.26797C9.8852 8.14797 9.96984 8.10001 10.0898 8.10001H12.0449C12.2249 8.10001 12.2852 8.20837 12.2012 8.37637L10.0771 12.2397C10.0532 12.2756 10.0533 12.3238 10.0771 12.3598L12.2012 16.224C12.2852 16.392 12.2249 16.5004 12.0449 16.5004H10.1016C9.98161 16.5004 9.89691 16.4523 9.83691 16.3324L8.68555 14.1479C8.64958 14.0879 8.60141 14.088 8.56543 14.1479L7.41309 16.3324C7.35311 16.4521 7.26924 16.5004 7.14941 16.5004H5.19336C5.01341 16.5004 4.9532 16.392 5.03711 16.224L7.17383 12.3598C7.19758 12.3238 7.19775 12.2755 7.17383 12.2397L5.03711 8.37637C4.95311 8.20838 5.01337 8.10001 5.19336 8.10001H7.16113ZM15.1729 12.0961C14.8729 12.0961 14.6681 12.2397 14.5361 12.4916C14.4161 12.7196 14.3564 13.044 14.3564 13.392C14.3564 13.7279 14.4162 14.04 14.5361 14.268C14.6681 14.508 14.8729 14.6645 15.1729 14.6645C15.4726 14.6643 15.6767 14.5081 15.8086 14.2563C15.9286 14.0283 15.9883 13.728 15.9883 13.392C15.9883 13.0202 15.9287 12.7081 15.7969 12.4682C15.6649 12.2403 15.4606 12.0963 15.1729 12.0961Z" fill="black"/>
</svg>
